<?xml version="1.0" encoding="utf-8"?>
<!-- Generator: Adobe Illustrator 23.0.0, SVG Export Plug-In . SVG Version: 6.00 Build 0)  -->
<svg version="1.1" xmlns="http://www.w3.org/2000/svg" xmlns:xlink="http://www.w3.org/1999/xlink" x="0px" y="0px"
	 viewBox="0 0 41.32 41.06" style="enable-background:new 0 0 41.32 41.06;" xml:space="preserve">
<style type="text/css">
	.st0{fill:url(#SVGID_1_);stroke:#AB9166;stroke-width:0.75;stroke-miterlimit:10;}
	.st1{fill:#AB9166;stroke:#AB9166;stroke-width:0.25;stroke-miterlimit:10;}
</style>
<g id="Слой_6">
	<linearGradient id="SVGID_1_" gradientUnits="userSpaceOnUse" x1="6.2094" y1="20.7189" x2="34.6369" y2="20.7189">
		<stop  offset="0" style="stop-color:#1A1A1A"/>
		<stop  offset="1" style="stop-color:#666666"/>
	</linearGradient>
	<rect x="6.21" y="6.51" class="st0" width="28.43" height="28.43"/>
</g>
<g id="Слой_7">
	<g>
		<path class="st1" d="M17.72,18.14c0,0,2.15,2.32,3.14,2.39c0.68,0.05,2.39-1.34,2.39-1.34l0.15,0.75c0,0-1.49,1.49-1.64,2.54
			c-0.1,0.67,0,2.09,0.15,2.69c0.18,0.71,0.75,2.84,0.75,2.84h-3.44v-0.15l0.6-2.84c0,0,0.21-1.46,0.15-1.94
			c-0.15-1.2-1.49-2.69-1.49-2.69l-1.49-1.64l0.45-0.9L17.72,18.14z"/>
		<path class="st1" d="M22.95,23.67l6.43-6.13l-3.74-3.74H15.62l-3.74,3.74l6.87,6.58c0,0,0.4-0.97,0.15-1.2
			c-1.64-1.49-5.53-5.38-5.53-5.38l2.69-2.69h9.12l2.84,2.69c0,0-3.74,3.44-5.23,4.93C22.65,22.62,22.95,23.67,22.95,23.67z"/>
	</g>
</g>
<g id="Слой_9">
	<path d="M30.83,7.25c1.78,0,3.23,1.45,3.23,3.23v20.48c0,1.78-1.45,3.23-3.23,3.23H10.34c-1.78,0-3.23-1.45-3.23-3.23V10.48
		c0-1.78,1.45-3.23,3.23-3.23H30.83 M30.83,4.25H10.34c-3.44,0-6.23,2.79-6.23,6.23v20.48c0,3.44,2.79,6.23,6.23,6.23h20.48
		c3.44,0,6.23-2.79,6.23-6.23V10.48C37.05,7.04,34.26,4.25,30.83,4.25L30.83,4.25z"/>
</g>
</svg>
