<?xml version="1.0" encoding="utf-8"?>
<!-- Generator: Adobe Illustrator 23.0.0, SVG Export Plug-In . SVG Version: 6.00 Build 0)  -->
<svg version="1.1" xmlns="http://www.w3.org/2000/svg" xmlns:xlink="http://www.w3.org/1999/xlink" x="0px" y="0px"
	 viewBox="0 0 41.32 41.06" style="enable-background:new 0 0 41.32 41.06;" xml:space="preserve">
<style type="text/css">
	.st0{fill:url(#SVGID_1_);stroke:#AB9166;stroke-width:0.75;stroke-miterlimit:10;}
	.st1{fill:url(#SVGID_2_);stroke:#AB9166;stroke-width:0.75;stroke-miterlimit:10;}
	.st2{fill:url(#SVGID_3_);stroke:#AB9166;stroke-width:0.75;stroke-miterlimit:10;}
</style>
<g id="Слой_6">
	<linearGradient id="SVGID_1_" gradientUnits="userSpaceOnUse" x1="6.2094" y1="20.7189" x2="34.6369" y2="20.7189">
		<stop  offset="0" style="stop-color:#1A1A1A"/>
		<stop  offset="1" style="stop-color:#666666"/>
	</linearGradient>
	<rect x="6.21" y="6.51" class="st0" width="28.43" height="28.43"/>
</g>
<g id="Слой_7">
	<linearGradient id="SVGID_2_" gradientUnits="userSpaceOnUse" x1="6.6449" y1="22.0814" x2="36.0063" y2="22.0814">
		<stop  offset="0" style="stop-color:#666666"/>
		<stop  offset="1" style="stop-color:#1A1A1A"/>
	</linearGradient>
	<path class="st1" d="M13.13,35.56l-3.19-0.13l-3.29-1.34c0,0,1.39-1.73,3.68-1.94c2.63-0.24,5.16-1.69,7.18-3.48
		c4.32-3.84,8.11-14.38,12.89-16.82c2.64-1.35,5.58-3.3,5.58-3.3c-0.05,0.56,0.23,8.22-0.3,8.9c-0.41,0.53-2.48,4.16-5.03,4.84
		c-2.44,0.65-4.97,1.26-7.16,3.24c-5.21,4.7-4.55,9.48-5.61,9.92C17.09,35.77,13.13,35.56,13.13,35.56z"/>
	<linearGradient id="SVGID_3_" gradientUnits="userSpaceOnUse" x1="5.4836" y1="16.106" x2="28.6027" y2="16.106">
		<stop  offset="0" style="stop-color:#666666"/>
		<stop  offset="1" style="stop-color:#1A1A1A"/>
	</linearGradient>
	<path class="st2" d="M5.48,27.02c0,0,1.05-19.36,2.06-20.52c0.95-1.08,2.61-1.1,5.97-1.33C16.31,4.99,28.6,5.72,28.6,5.72
		s-1.75,0.95-4.34,3.45c-2.7,2.6-4.06,10.65-8.1,14.52C11.97,27.7,5.48,27.02,5.48,27.02z"/>
</g>
<g id="Слой_9">
	<path d="M30.83,7.25c1.78,0,3.23,1.45,3.23,3.23v20.48c0,1.78-1.45,3.23-3.23,3.23H10.34c-1.78,0-3.23-1.45-3.23-3.23V10.48
		c0-1.78,1.45-3.23,3.23-3.23H30.83 M30.83,4.25H10.34c-3.44,0-6.23,2.79-6.23,6.23v20.48c0,3.44,2.79,6.23,6.23,6.23h20.48
		c3.44,0,6.23-2.79,6.23-6.23V10.48C37.05,7.04,34.26,4.25,30.83,4.25L30.83,4.25z"/>
</g>
</svg>
