<?xml version="1.0" encoding="utf-8"?>
<!-- Generator: Adobe Illustrator 23.0.0, SVG Export Plug-In . SVG Version: 6.00 Build 0)  -->
<svg version="1.1" xmlns="http://www.w3.org/2000/svg" xmlns:xlink="http://www.w3.org/1999/xlink" x="0px" y="0px"
	 viewBox="0 0 41.32 41.06" style="enable-background:new 0 0 41.32 41.06;" xml:space="preserve">
<style type="text/css">
	.st0{fill:url(#SVGID_1_);stroke:#AB9166;stroke-width:0.75;stroke-miterlimit:10;}
	.st1{fill:url(#SVGID_2_);stroke:#9897A3;stroke-width:0.75;stroke-miterlimit:10;}
	.st2{fill:url(#SVGID_3_);stroke:#9897A3;stroke-width:0.75;stroke-miterlimit:10;}
</style>
<g id="Слой_6">
	<linearGradient id="SVGID_1_" gradientUnits="userSpaceOnUse" x1="6.2094" y1="20.7189" x2="34.6369" y2="20.7189">
		<stop  offset="0" style="stop-color:#1A1A1A"/>
		<stop  offset="1" style="stop-color:#666666"/>
	</linearGradient>
	<rect x="6.21" y="6.51" class="st0" width="28.43" height="28.43"/>
</g>
<g id="Слой_7">
	<linearGradient id="SVGID_2_" gradientUnits="userSpaceOnUse" x1="10.5159" y1="20.7246" x2="35.6772" y2="20.7246">
		<stop  offset="0" style="stop-color:#666666"/>
		<stop  offset="1" style="stop-color:#1A1A1A"/>
	</linearGradient>
	<polygon class="st1" points="30.31,6.21 30.31,8.92 27.99,8.92 26.14,10.86 23.87,11.28 23.68,12.94 20.97,13.67 21.51,15.61 
		19.68,16.67 19.26,17.83 16.82,18.46 17.19,19.89 19.91,20.16 21.77,21.18 19.87,24.47 17.35,24.01 15.52,25.47 15.48,27.51 
		13.58,28.34 14.77,30.63 12.61,31.96 10.52,34.93 32.51,35.23 30.54,32.71 27.68,33.31 25.48,32.89 23.97,31.76 24.61,30.51 
		25.64,29.7 25.29,27.51 26.19,25.47 30.1,25.47 31.68,23.86 32.42,22.18 31.32,19.7 32.32,17.47 32.16,15.51 33.42,14.12 
		34.48,12.63 35.35,11.47 35.68,10.51 35.06,9.54 34.32,8.73 33.64,6.21 	"/>
	
		<linearGradient id="SVGID_3_" gradientUnits="userSpaceOnUse" x1="9.3028" y1="12.1183" x2="27.2487" y2="12.1183" gradientTransform="matrix(0.9408 0.3388 -0.3388 0.9408 2.4094 -1.1663)">
		<stop  offset="0" style="stop-color:#666666"/>
		<stop  offset="1" style="stop-color:#1A1A1A"/>
	</linearGradient>
	<polygon class="st2" points="24.55,5.05 22.15,5.91 19.87,5.54 18.6,6.21 16.33,6.8 15.31,8.72 13.65,8.56 12.83,9.77 11.29,10.38 
		10.98,12.79 8.79,13.6 9.42,15.31 7.2,16.06 5.82,16.81 5.55,29.02 7.87,27.51 9.26,25.44 12.45,25.12 13.68,23.25 13.23,21.8 
		14.39,19.51 14.58,16.34 17.58,15.28 16.17,11.52 17.42,9.2 19.71,9.71 21.59,8.18 23.46,9.23 25.32,7.47 28.03,7.23 29.1,5.15 	
		"/>
</g>
<g id="Слой_9">
	<path d="M30.83,7.25c1.78,0,3.23,1.45,3.23,3.23v20.48c0,1.78-1.45,3.23-3.23,3.23H10.34c-1.78,0-3.23-1.45-3.23-3.23V10.48
		c0-1.78,1.45-3.23,3.23-3.23H30.83 M30.83,4.25H10.34c-3.44,0-6.23,2.79-6.23,6.23v20.48c0,3.44,2.79,6.23,6.23,6.23h20.48
		c3.44,0,6.23-2.79,6.23-6.23V10.48C37.05,7.04,34.26,4.25,30.83,4.25L30.83,4.25z"/>
</g>
</svg>
