<?xml version="1.0" encoding="utf-8"?>
<!-- Generator: Adobe Illustrator 23.0.0, SVG Export Plug-In . SVG Version: 6.00 Build 0)  -->
<!DOCTYPE svg PUBLIC "-//W3C//DTD SVG 1.1//EN" "http://www.w3.org/Graphics/SVG/1.1/DTD/svg11.dtd" [
	<!ENTITY ns_extend "http://ns.adobe.com/Extensibility/1.0/">
	<!ENTITY ns_ai "http://ns.adobe.com/AdobeIllustrator/10.0/">
	<!ENTITY ns_graphs "http://ns.adobe.com/Graphs/1.0/">
	<!ENTITY ns_vars "http://ns.adobe.com/Variables/1.0/">
	<!ENTITY ns_imrep "http://ns.adobe.com/ImageReplacement/1.0/">
	<!ENTITY ns_sfw "http://ns.adobe.com/SaveForWeb/1.0/">
	<!ENTITY ns_custom "http://ns.adobe.com/GenericCustomNamespace/1.0/">
	<!ENTITY ns_adobe_xpath "http://ns.adobe.com/XPath/1.0/">
]>
<svg version="1.1" xmlns:x="&ns_extend;" xmlns:i="&ns_ai;" xmlns:graph="&ns_graphs;"
	 xmlns="http://www.w3.org/2000/svg" xmlns:xlink="http://www.w3.org/1999/xlink" x="0px" y="0px" viewBox="0 0 41.3 41.1"
	 style="enable-background:new 0 0 41.3 41.1;" xml:space="preserve">
<style type="text/css">
	.st0{fill:url(#SVGID_1_);stroke:#AB9166;stroke-width:0.75;stroke-miterlimit:10;}
	.st1{fill:url(#SVGID_2_);stroke:#DDDDDD;stroke-width:0.75;stroke-miterlimit:10;}
	.st2{fill:url(#SVGID_3_);stroke:#DDDDDD;stroke-width:0.75;stroke-miterlimit:10;}
</style>
<metadata>
	<sfw  xmlns="&ns_sfw;">
		<slices></slices>
		<sliceSourceBounds  bottomLeftOrigin="true" height="32.9" width="32.9" x="4.1" y="3.9"></sliceSourceBounds>
	</sfw>
</metadata>
<g id="Слой_1">
	<g id="Слой_6">
		
			<linearGradient id="SVGID_1_" gradientUnits="userSpaceOnUse" x1="6.2" y1="1376.75" x2="34.63" y2="1376.75" gradientTransform="matrix(1 0 0 1 0 -1356)">
			<stop  offset="0" style="stop-color:#1A1A1A"/>
			<stop  offset="1" style="stop-color:#666666"/>
		</linearGradient>
		<path class="st0" d="M9.6,6.5h24.2c0.5,0,0.8,0.4,0.8,0.8V32c0,1.6-1.3,3-3,3H8.8c-1.4,0-2.6-1.1-2.6-2.6V9.9
			C6.2,8,7.7,6.5,9.6,6.5z"/>
	</g>
	<g id="Слой_2">
	</g>
	<g id="Слой_7_1_">
		
			<linearGradient id="SVGID_2_" gradientUnits="userSpaceOnUse" x1="9.0159" y1="1377.1185" x2="23.616" y2="1377.1185" gradientTransform="matrix(1 0 0 1 0 -1356)">
			<stop  offset="0" style="stop-color:#666666"/>
			<stop  offset="1" style="stop-color:#1A1A1A"/>
		</linearGradient>
		<path class="st1" d="M9,36c0-15.5,9.9-15.5,9.9-29.8h4.7c0,14.9-6,15.3-6,29.8C13.6,36,9,36,9,36z"/>
	</g>
	<g id="Слой_7_2_">
		
			<linearGradient id="SVGID_3_" gradientUnits="userSpaceOnUse" x1="22.1492" y1="1377.1185" x2="32.1869" y2="1377.1185" gradientTransform="matrix(1 0 0 1 0 -1356)">
			<stop  offset="0" style="stop-color:#666666"/>
			<stop  offset="1" style="stop-color:#1A1A1A"/>
		</linearGradient>
		<path class="st2" d="M22.1,36c0-15.5,6.8-15.5,6.8-29.8h3.2c0,14.9-3.7,15.3-3.7,29.8C24.6,36,22.1,36,22.1,36z"/>
	</g>
	<g id="Слой_9">
		<path d="M30.8,7.3c1.8,0,3.2,1.4,3.2,3.2V31c0,1.8-1.5,3.2-3.2,3.2H10.3c-1.8,0-3.2-1.5-3.2-3.2V10.5c0-1.8,1.5-3.2,3.2-3.2H30.8
			 M30.8,4.3H10.3c-3.4,0-6.2,2.8-6.2,6.2V31c0,3.4,2.8,6.2,6.2,6.2h20.5c3.4,0,6.2-2.8,6.2-6.2V10.5C37,7,34.3,4.3,30.8,4.3
			L30.8,4.3z"/>
	</g>
</g>
<g id="Слой_3">
</g>
</svg>
