<?xml version="1.0" encoding="utf-8"?>
<!-- Generator: Adobe Illustrator 23.0.0, SVG Export Plug-In . SVG Version: 6.00 Build 0)  -->
<svg version="1.1" xmlns="http://www.w3.org/2000/svg" xmlns:xlink="http://www.w3.org/1999/xlink" x="0px" y="0px"
	 viewBox="0 0 41.32 41.06" style="enable-background:new 0 0 41.32 41.06;" xml:space="preserve">
<style type="text/css">
	.st0{clip-path:url(#SVGID_1_);}
	.st1{fill:none;stroke:url(#SVGID_2_);stroke-width:0.25;stroke-miterlimit:10;}
	.st2{fill:url(#SVGID_3_);stroke:#AB9166;stroke-width:0.75;stroke-miterlimit:10;}
	.st3{fill:url(#SVGID_4_);stroke:#AB9166;stroke-width:0.75;stroke-miterlimit:10;}
	.st4{fill:url(#SVGID_5_);stroke:#AB9166;stroke-width:0.75;stroke-miterlimit:10;}
	.st5{fill:url(#SVGID_6_);stroke:#AB9166;stroke-width:0.75;stroke-miterlimit:10;}
	.st6{fill:url(#SVGID_7_);stroke:#AB9166;stroke-width:0.75;stroke-miterlimit:10;}
	.st7{fill:url(#SVGID_8_);stroke:#AB9166;stroke-width:0.75;stroke-miterlimit:10;}
</style>
<g id="Слой_4">
	<g>
		<g>
			<defs>
				<polygon id="SVGID_15_" points="36.32,10.03 36.25,10.03 36.25,10.02 				"/>
			</defs>
			<clipPath id="SVGID_1_">
				<use xlink:href="#SVGID_15_"  style="overflow:visible;"/>
			</clipPath>
			<g class="st0">
			</g>
		</g>
		<linearGradient id="SVGID_2_" gradientUnits="userSpaceOnUse" x1="36.1269" y1="10.014" x2="36.3395" y2="10.014">
			<stop  offset="0" style="stop-color:#AB9166"/>
			<stop  offset="1" style="stop-color:#877151"/>
		</linearGradient>
		<polygon class="st1" points="36.32,10.03 36.25,10.03 36.25,10.02 		"/>
	</g>
</g>
<g id="Слой_6">
	<linearGradient id="SVGID_3_" gradientUnits="userSpaceOnUse" x1="6.2094" y1="20.7189" x2="34.6369" y2="20.7189">
		<stop  offset="0" style="stop-color:#1A1A1A"/>
		<stop  offset="1" style="stop-color:#666666"/>
	</linearGradient>
	<rect x="6.21" y="6.51" class="st2" width="28.43" height="28.43"/>
</g>
<g id="Слой_8">
	<linearGradient id="SVGID_4_" gradientUnits="userSpaceOnUse" x1="6.1094" y1="20.8405" x2="34.903" y2="20.8405">
		<stop  offset="0" style="stop-color:#1A1A1A"/>
		<stop  offset="1" style="stop-color:#AB9166"/>
	</linearGradient>
	<polygon class="st3" points="6.11,14.4 6.11,9.75 7.75,6.81 13.42,6.18 22.51,6.42 28.65,6.18 28.03,8.64 29.92,11.98 30.79,15.81 
		29.48,18.81 30.79,19.45 34.39,18.02 34.64,28.28 34.9,30.89 34.05,34.19 30.97,35.5 27.03,35.5 19.16,31.51 14.87,32.02 
		10.57,32.94 8.9,34.55 6.74,34.55 6.11,23.83 7.73,25.56 10.06,26.54 13.45,28.25 17,28.02 20.87,26.28 23.26,23.34 23.68,21.86 
		24.69,20.45 24.69,18.85 24.3,16.63 23.43,14.55 22.22,12.85 20.32,11.36 17.92,10.1 15.5,9.75 13.27,9.75 11.38,10.32 
		10.19,11.21 7.97,13.04 	"/>
</g>
<g id="Слой_7">
	<linearGradient id="SVGID_5_" gradientUnits="userSpaceOnUse" x1="23.6772" y1="27.6382" x2="33.8143" y2="27.6382">
		<stop  offset="0" style="stop-color:#1A1A1A"/>
		<stop  offset="1" style="stop-color:#666666"/>
	</linearGradient>
	<circle class="st4" cx="28.75" cy="27.64" r="5.07"/>
</g>
<g id="Слой_5">
	<linearGradient id="SVGID_6_" gradientUnits="userSpaceOnUse" x1="5.3385" y1="19.1737" x2="24.7901" y2="19.1737">
		<stop  offset="0" style="stop-color:#1A1A1A"/>
		<stop  offset="1" style="stop-color:#666666"/>
	</linearGradient>
	<circle class="st5" cx="15.06" cy="19.17" r="9.73"/>
	<linearGradient id="SVGID_7_" gradientUnits="userSpaceOnUse" x1="8.1068" y1="33.2874" x2="26.2875" y2="33.2874">
		<stop  offset="0" style="stop-color:#1A1A1A"/>
		<stop  offset="1" style="stop-color:#666666"/>
	</linearGradient>
	<path class="st6" d="M25.51,33.54c-2-2-4.75-3.23-7.8-3.23s-5.8,1.23-7.8,3.23s-2.25,2.19-1.19,1.95
		c2.47,0.73,12.34,0.77,14.52,0.77C25.24,34.27,27.51,35.54,25.51,33.54z"/>
	<linearGradient id="SVGID_8_" gradientUnits="userSpaceOnUse" x1="25.338" y1="13.0391" x2="36.2321" y2="13.0391">
		<stop  offset="0" style="stop-color:#1A1A1A"/>
		<stop  offset="1" style="stop-color:#666666"/>
	</linearGradient>
	<path class="st7" d="M25.34,13.04c0,3.61,2.93,6.42,6.53,6.53c7.68,0.24,3.61-13.06,0-13.06S25.34,9.43,25.34,13.04z"/>
</g>
<g id="Слой_9">
	<path d="M30.83,7.25c1.78,0,3.23,1.45,3.23,3.23v20.48c0,1.78-1.45,3.23-3.23,3.23H10.34c-1.78,0-3.23-1.45-3.23-3.23V10.48
		c0-1.78,1.45-3.23,3.23-3.23H30.83 M30.83,4.25H10.34c-3.44,0-6.23,2.79-6.23,6.23v20.48c0,3.44,2.79,6.23,6.23,6.23h20.48
		c3.44,0,6.23-2.79,6.23-6.23V10.48C37.05,7.04,34.26,4.25,30.83,4.25L30.83,4.25z"/>
</g>
</svg>
