<?xml version="1.0" encoding="utf-8"?>
<!-- Generator: Adobe Illustrator 23.0.0, SVG Export Plug-In . SVG Version: 6.00 Build 0)  -->
<!DOCTYPE svg PUBLIC "-//W3C//DTD SVG 1.1//EN" "http://www.w3.org/Graphics/SVG/1.1/DTD/svg11.dtd" [
	<!ENTITY ns_extend "http://ns.adobe.com/Extensibility/1.0/">
	<!ENTITY ns_ai "http://ns.adobe.com/AdobeIllustrator/10.0/">
	<!ENTITY ns_graphs "http://ns.adobe.com/Graphs/1.0/">
	<!ENTITY ns_vars "http://ns.adobe.com/Variables/1.0/">
	<!ENTITY ns_imrep "http://ns.adobe.com/ImageReplacement/1.0/">
	<!ENTITY ns_sfw "http://ns.adobe.com/SaveForWeb/1.0/">
	<!ENTITY ns_custom "http://ns.adobe.com/GenericCustomNamespace/1.0/">
	<!ENTITY ns_adobe_xpath "http://ns.adobe.com/XPath/1.0/">
]>
<svg version="1.1" id="Слой_1" xmlns:x="&ns_extend;" xmlns:i="&ns_ai;" xmlns:graph="&ns_graphs;"
	 xmlns="http://www.w3.org/2000/svg" xmlns:xlink="http://www.w3.org/1999/xlink" x="0px" y="0px" viewBox="0 0 118.9 94.9"
	 style="enable-background:new 0 0 118.9 94.9;" xml:space="preserve">
<style type="text/css">
	.st0{fill:#FFFFFF;stroke:#FFFFFF;stroke-width:0.75;stroke-miterlimit:10;}
	.st1{fill:#FFFFFF;stroke:#FFFFFF;stroke-width:3;stroke-miterlimit:10;}
</style>
<metadata>
	<sfw  xmlns="&ns_sfw;">
		<slices></slices>
		<sliceSourceBounds  bottomLeftOrigin="true" height="95" width="119" x="0" y="-0.1"></sliceSourceBounds>
	</sfw>
</metadata>
<path class="st0" d="M40.4,29.9c0,0,14.1,15.2,20.6,15.7c4.5,0.3,15.7-8.8,15.7-8.8l1,4.9c0,0-9.8,9.8-10.8,16.7
	c-0.6,4.4,0,13.7,1,17.6c1.2,4.7,4.9,18.6,4.9,18.6H50.1v-1l4-18.6c0,0,1.4-9.6,1-12.7c-1-7.8-9.8-17.6-9.8-17.6l-9.8-10.8l2.9-5.9
	L40.4,29.9z"/>
<path class="st1" d="M74.6,66.2L116.8,26L92.3,1.5H26.6L2.1,26l45.1,43.1c0,0,2.6-6.4,1-7.8C37.4,51.5,11.9,26,11.9,26L29.6,8.4
	h59.8L108,26c0,0-24.5,22.5-34.3,32.3C72.7,59.3,74.6,66.2,74.6,66.2z"/>
</svg>
