<?xml version="1.0" encoding="utf-8"?>
<!-- Generator: Adobe Illustrator 23.0.0, SVG Export Plug-In . SVG Version: 6.00 Build 0)  -->
<!DOCTYPE svg PUBLIC "-//W3C//DTD SVG 1.1//EN" "http://www.w3.org/Graphics/SVG/1.1/DTD/svg11.dtd" [
	<!ENTITY ns_extend "http://ns.adobe.com/Extensibility/1.0/">
	<!ENTITY ns_ai "http://ns.adobe.com/AdobeIllustrator/10.0/">
	<!ENTITY ns_graphs "http://ns.adobe.com/Graphs/1.0/">
	<!ENTITY ns_vars "http://ns.adobe.com/Variables/1.0/">
	<!ENTITY ns_imrep "http://ns.adobe.com/ImageReplacement/1.0/">
	<!ENTITY ns_sfw "http://ns.adobe.com/SaveForWeb/1.0/">
	<!ENTITY ns_custom "http://ns.adobe.com/GenericCustomNamespace/1.0/">
	<!ENTITY ns_adobe_xpath "http://ns.adobe.com/XPath/1.0/">
]>
<svg version="1.1" id="Слой_1" xmlns:x="&ns_extend;" xmlns:i="&ns_ai;" xmlns:graph="&ns_graphs;"
	 xmlns="http://www.w3.org/2000/svg" xmlns:xlink="http://www.w3.org/1999/xlink" x="0px" y="0px" viewBox="0 0 41.3 41.1"
	 style="enable-background:new 0 0 41.3 41.1;" xml:space="preserve">
<style type="text/css">
	.st0{fill:url(#SVGID_1_);stroke:#AB9166;stroke-width:0.75;stroke-miterlimit:10;}
	.st1{fill:url(#SVGID_2_);stroke:#AAAAAA;stroke-width:0.75;stroke-miterlimit:10;}
	.st2{fill:url(#SVGID_3_);stroke:#ADADAD;stroke-width:0.75;stroke-miterlimit:10;}
	.st3{fill:url(#SVGID_4_);stroke:#AAAAAA;stroke-width:0.75;stroke-miterlimit:10;}
</style>
<metadata>
	<sfw  xmlns="&ns_sfw;">
		<slices></slices>
		<sliceSourceBounds  bottomLeftOrigin="true" height="16383" width="32.9" x="4.1" y="-8171.9"></sliceSourceBounds>
	</sfw>
</metadata>
<g id="Слой_6">
	
		<linearGradient id="SVGID_1_" gradientUnits="userSpaceOnUse" x1="6.2" y1="976.7" x2="34.63" y2="976.7" gradientTransform="matrix(1 0 0 1 0 -956)">
		<stop  offset="0" style="stop-color:#1A1A1A"/>
		<stop  offset="1" style="stop-color:#666666"/>
	</linearGradient>
	<path class="st0" d="M10.4,6.5h20c2.3,0,4.2,1.9,4.2,4.2v20c0,2.3-1.9,4.2-4.2,4.2h-20c-2.3,0-4.2-1.9-4.2-4.2v-20
		C6.2,8.4,8.1,6.5,10.4,6.5z"/>
</g>
<g id="Слой_7">
	
		<linearGradient id="SVGID_2_" gradientUnits="userSpaceOnUse" x1="10.7" y1="969.4" x2="24.1516" y2="969.4" gradientTransform="matrix(1 0 0 1 0 -956)">
		<stop  offset="0" style="stop-color:#666666"/>
		<stop  offset="1" style="stop-color:#1A1A1A"/>
	</linearGradient>
	<path class="st1" d="M10.7,14.7v-2.6c0-0.6,0.5-1.1,1.1-1.1h11.3c0.6,0,1.1,0.5,1.1,1.1v2.6c0,0.6-0.5,1.1-1.1,1.1H11.8
		C11.2,15.8,10.7,15.3,10.7,14.7z"/>
</g>
<g id="Слой_9">
	<path d="M30.8,7.3c1.8,0,3.2,1.4,3.2,3.2V31c0,1.8-1.5,3.2-3.2,3.2H10.3c-1.8,0-3.2-1.5-3.2-3.2V10.5c0-1.8,1.5-3.2,3.2-3.2H30.8
		 M30.8,4.3H10.3c-3.4,0-6.2,2.8-6.2,6.2V31c0,3.4,2.8,6.2,6.2,6.2h20.5c3.4,0,6.2-2.8,6.2-6.2V10.5C37,7,34.3,4.3,30.8,4.3
		L30.8,4.3z"/>
</g>
<g id="Слой_7_1_">
	
		<linearGradient id="SVGID_3_" gradientUnits="userSpaceOnUse" x1="10.6981" y1="984.4939" x2="30.6981" y2="984.4939" gradientTransform="matrix(1 0 0 1 0 -956)">
		<stop  offset="0" style="stop-color:#666666"/>
		<stop  offset="1" style="stop-color:#1A1A1A"/>
	</linearGradient>
	<path class="st2" d="M10.7,29.7v-2.4c0-0.6,0.5-1.1,1.1-1.1h17.7c0.6,0,1.1,0.5,1.1,1.1v2.5c0,0.6-0.5,1.2-1.2,1.1l-17.7-0.1
		C11.2,30.8,10.7,30.3,10.7,29.7z"/>
</g>
<g id="Слой_7_2_">
	
		<linearGradient id="SVGID_4_" gradientUnits="userSpaceOnUse" x1="10.7316" y1="977.0098" x2="27.5316" y2="977.0098" gradientTransform="matrix(1 0 0 1 0 -956)">
		<stop  offset="0" style="stop-color:#666666"/>
		<stop  offset="1" style="stop-color:#1A1A1A"/>
	</linearGradient>
	<path class="st3" d="M10.7,22v-2c0-0.8,0.6-1.4,1.4-1.4h14.1c0.8,0,1.4,0.6,1.4,1.4V22c0,0.8-0.6,1.4-1.4,1.4l-14.1-0.1
		C11.3,23.3,10.7,22.7,10.7,22z"/>
</g>
</svg>
