<?xml version="1.0" encoding="utf-8"?>
<!-- Generator: Adobe Illustrator 23.0.0, SVG Export Plug-In . SVG Version: 6.00 Build 0)  -->
<svg version="1.1" xmlns="http://www.w3.org/2000/svg" xmlns:xlink="http://www.w3.org/1999/xlink" x="0px" y="0px"
	 viewBox="0 0 41.32 41.06" style="enable-background:new 0 0 41.32 41.06;" xml:space="preserve">
<style type="text/css">
	.st0{fill:url(#SVGID_1_);stroke:url(#SVGID_2_);stroke-miterlimit:10;}
	.st1{fill:url(#SVGID_3_);stroke:url(#SVGID_4_);stroke-miterlimit:10;}
	.st2{clip-path:url(#SVGID_5_);}
	.st3{fill:none;stroke:url(#SVGID_6_);stroke-width:0.25;stroke-miterlimit:10;}
	.st4{fill:url(#SVGID_7_);stroke:#AB9166;stroke-width:0.75;stroke-miterlimit:10;}
	.st5{fill:url(#SVGID_8_);stroke:#AB9166;stroke-width:0.75;stroke-miterlimit:10;}
</style>
<g id="Слой_4">
	<linearGradient id="SVGID_1_" gradientUnits="userSpaceOnUse" x1="14.6549" y1="25.0626" x2="35.7543" y2="25.0626">
		<stop  offset="0" style="stop-color:#1A1A1A"/>
		<stop  offset="1" style="stop-color:#666666"/>
	</linearGradient>
	<linearGradient id="SVGID_2_" gradientUnits="userSpaceOnUse" x1="13.2484" y1="25.0672" x2="36.2543" y2="25.0672">
		<stop  offset="0" style="stop-color:#AB9166"/>
		<stop  offset="1" style="stop-color:#877151"/>
	</linearGradient>
	<path class="st0" d="M20.92,36.02l-6.26,0.04l1.23-1.01c0,0,3.58-4.09,5.36-3.94c1.08,0.09,1.87,3.31,4.11,3.1
		c0.52-0.05,0.02-1.42,0.02-1.42s-0.87-1.55-0.94-2.11c-0.15-1.18-0.1-2.26-0.23-2.88c-0.27-1.33-1.59-3.78-1.61-5.2
		c-0.02-1.57,0.55-1.61,0.73-2.15c0.24-0.72-0.66-2.18-0.82-2.92c-0.14-0.64,0.03-2.62,0.03-2.62s1.16-0.93,1.6-0.83
		c0.89,0.2,4.34,1.1,5.37,2.11c0.54,0.53,0.86,2.11,1.22,2.77c0.23,0.42,3.53-0.43,4.71-0.52c0.4-0.03,0.33,0.46,0.33,0.46
		s-0.12,1.13-0.12,2.03c0,1.15,0.1,10.28,0.1,10.28s-0.33,2.71-2.32,3.82c-2.61,1.45-5.18,0.92-5.18,0.92L20.92,36.02z"/>
	<linearGradient id="SVGID_3_" gradientUnits="userSpaceOnUse" x1="5.2605" y1="20.5883" x2="35.8919" y2="20.5883">
		<stop  offset="0" style="stop-color:#1A1A1A"/>
		<stop  offset="1" style="stop-color:#666666"/>
	</linearGradient>
	<linearGradient id="SVGID_4_" gradientUnits="userSpaceOnUse" x1="4.7511" y1="20.5903" x2="36.3992" y2="20.5903">
		<stop  offset="0" style="stop-color:#AB9166"/>
		<stop  offset="1" style="stop-color:#877151"/>
	</linearGradient>
	<path class="st1" d="M35.3,9.97c0.25,0.03,0.33,0.05,0.43,0.06l0.16,8.04l-1.33,0.43l-2.08,1.9l-1.75,0.02l-1.32-2.86l-2.45-1.1
		l-2.12-0.72l-0.94-0.18c0,0-1.15,0.47-1.36,0.81c-0.23,0.37,0.83,3.13,0.87,3.56c0.09,0.93-0.44,1.87-0.44,1.87
		s-0.3,1.25-0.34,1.73c-0.07,0.95,0.9,2.27,0.9,2.27s0.46,1.25,0.72,2.27c0.04,0.14,0.18,2.61,0.18,2.61s1.76,2.92,1.05,3.48
		c-1.13,0.87-2.74-1.9-4.24-3.04c-0.53-0.41-2.23,1-2.23,1l-1.88,1.6l-2.14,2.13l-0.91-0.02h-3.73c0,0-2.39-0.36-3.06-1.23
		c-1.44-1.86-1.94-2.98-1.94-3.65c0-0.91-0.09-5.05-0.09-5.05s1.54-0.3,2.28-0.24c1.12,0.1,3.87,1.65,4.31,1.38
		c0.24-0.14-0.24-0.88-0.44-1.1c-0.63-0.69-0.96-2.14-0.96-2.14s-0.8-1.65-1.23-2.12c-0.37-0.39-1.4-0.99-1.82-1.38
		c-0.84-0.77-1.26-2.33-1.76-3.35c-0.17-0.35-0.37-1.54-0.37-1.54l0.28-2.7l0.22-0.73c0,0,0.4-0.2,0.66-0.33
		c0.46-0.22,1.27-0.87,1.6-1.25c0.69-0.79,2.13-3.59,2.13-3.59s0.64-1.18,1.02-1.4c0.24-0.14,2.1-0.07,2.1-0.07l2.62,0.02l4.08,0.04
		c0,0,1.98-0.38,1.21,1.19c-0.42,0.87-2.67,1.3-2.67,1.3s-2.46,0.98-3.11,1.53c-0.9,0.76-2.3,3.64-2.3,3.64l-1.35,2.17
		c0,0-1.26,1.36-1.27,1.94c0,0.21,0.29,0.65,0.5,0.68c1.94,0.25,3.44-0.66,4.51-0.66c1.09,0,3.34-0.3,4.21-0.94
		c0.77-0.57,1.6-2.42,2.21-3.16c0.35-0.43,1.06-0.94,1.53-1.58c0.4-0.54,0.61-1.97,1.52-2.23c0.56-0.15,1.86,1.37,2.22,2.03
		c0.38,0.71,0.91,2.38,1.48,2.94c0.39,0.39,2.03,1.25,2.03,1.25s1.13,0.59,1.52,0.51c0.49-0.1,0.5-0.6,0.49-0.81
		c-0.04-0.56-0.52-1.45-0.63-1.95c-0.16-0.73-0.1-2.49,0.48-2.95c0.84-0.67,1.38-0.39,1.78-0.33C35.01,10.08,34.75,9.91,35.3,9.97z"
		/>
	<g>
		<g>
			<defs>
				<polygon id="SVGID_15_" points="36.32,10.03 36.25,10.03 36.25,10.02 				"/>
			</defs>
			<clipPath id="SVGID_5_">
				<use xlink:href="#SVGID_15_"  style="overflow:visible;"/>
			</clipPath>
			<g class="st2">
			</g>
		</g>
		<linearGradient id="SVGID_6_" gradientUnits="userSpaceOnUse" x1="36.1269" y1="10.014" x2="36.3395" y2="10.014">
			<stop  offset="0" style="stop-color:#AB9166"/>
			<stop  offset="1" style="stop-color:#877151"/>
		</linearGradient>
		<polygon class="st3" points="36.32,10.03 36.25,10.03 36.25,10.02 		"/>
	</g>
</g>
<g id="Слой_5">
	<linearGradient id="SVGID_7_" gradientUnits="userSpaceOnUse" x1="4.9998" y1="16.0252" x2="11.9797" y2="16.0252">
		<stop  offset="0" style="stop-color:#1A1A1A"/>
		<stop  offset="1" style="stop-color:#666666"/>
	</linearGradient>
	<path class="st4" d="M5.94,8.12c-0.89,1.47-0.81,3.71-0.81,3.71l0.21,7.9L5,25.05l0.15,1.24c0,0,1.63-0.8,2.44-0.62
		c1.1,0.25,3.66,1.45,4.27,1.37c0.5-0.07-0.65-1.36-0.9-1.8c-0.18-0.32-0.34-1.03-0.48-1.36c-0.26-0.61-0.8-1.89-1.34-2.28
		c-1.31-0.96-1.6-0.88-2.94-2.69c-0.63-0.85-0.71-3.35-0.71-3.35l0.42-3.95c0,0,1.21-0.31,1.91-1c1.1-1.09,2.15-4.1,3.27-5.13
		C11.37,5.23,11.27,5,11.27,5S9.95,5.14,8.61,5.67C7.95,5.93,7.03,6.31,5.94,8.12z"/>
</g>
<g id="Слой_6">
	<linearGradient id="SVGID_8_" gradientUnits="userSpaceOnUse" x1="10.4907" y1="11.4647" x2="36.3218" y2="11.4647">
		<stop  offset="0" style="stop-color:#1A1A1A"/>
		<stop  offset="1" style="stop-color:#666666"/>
	</linearGradient>
	<path class="st5" d="M34.17,5.77c0.88,0.75,1.36,1.52,1.67,2.3c0.46,1.15,0.49,2.31,0.49,2.31s-1.97-0.6-2.81-0.5
		c-0.31,0.04-0.88,0.35-1.09,0.58c-0.39,0.42-0.42,2.11-0.42,2.11s0.7,2.05,0.74,2.71c0.01,0.23-0.16,0.62-0.37,0.7
		c-0.95,0.34-3-0.89-3.64-1.66c-0.51-0.6-1.43-2.78-1.43-2.78s-1.44-2.27-2.23-2.25c-0.74,0.02-1.32,1.78-1.74,2.4
		c-0.26,0.38-1,0.96-1.31,1.31c-0.65,0.74-1.36,2.54-2.24,3.22c-0.75,0.57-3.29,0.94-3.29,0.94l-1.42,0.1l-2.3,0.56
		c0,0-1.39,0.25-1.79,0.05c-0.19-0.09-0.53-0.47-0.49-0.68c0.1-0.68,1.27-1.94,1.27-1.94l1.2-1.93c0,0,1.52-3.06,2.36-3.8
		c1.12-0.99,4.29-1.55,5.45-2.5c0.18-0.15,0.59-0.42,0.46-0.79c-0.16-0.47-1.06-0.42-1.22-0.91C19.93,5.03,19.96,5,19.96,5
		s2.49,0,3.25,0c0.65,0,3.65,0,3.65,0s4.02-0.01,4.43,0.02C32.88,5.15,33.31,5.04,34.17,5.77z"/>
</g>
<g id="Слой_9">
	<path d="M30.83,7.25c1.78,0,3.23,1.45,3.23,3.23v20.48c0,1.78-1.45,3.23-3.23,3.23H10.34c-1.78,0-3.23-1.45-3.23-3.23V10.48
		c0-1.78,1.45-3.23,3.23-3.23H30.83 M30.83,4.25H10.34c-3.44,0-6.23,2.79-6.23,6.23v20.48c0,3.44,2.79,6.23,6.23,6.23h20.48
		c3.44,0,6.23-2.79,6.23-6.23V10.48C37.05,7.04,34.26,4.25,30.83,4.25L30.83,4.25z"/>
</g>
</svg>
