<?xml version="1.0" encoding="utf-8"?>
<!-- Generator: Adobe Illustrator 23.0.0, SVG Export Plug-In . SVG Version: 6.00 Build 0)  -->
<!DOCTYPE svg PUBLIC "-//W3C//DTD SVG 1.1//EN" "http://www.w3.org/Graphics/SVG/1.1/DTD/svg11.dtd" [
	<!ENTITY ns_extend "http://ns.adobe.com/Extensibility/1.0/">
	<!ENTITY ns_ai "http://ns.adobe.com/AdobeIllustrator/10.0/">
	<!ENTITY ns_graphs "http://ns.adobe.com/Graphs/1.0/">
	<!ENTITY ns_vars "http://ns.adobe.com/Variables/1.0/">
	<!ENTITY ns_imrep "http://ns.adobe.com/ImageReplacement/1.0/">
	<!ENTITY ns_sfw "http://ns.adobe.com/SaveForWeb/1.0/">
	<!ENTITY ns_custom "http://ns.adobe.com/GenericCustomNamespace/1.0/">
	<!ENTITY ns_adobe_xpath "http://ns.adobe.com/XPath/1.0/">
]>
<svg version="1.1" id="Слой_1" xmlns:x="&ns_extend;" xmlns:i="&ns_ai;" xmlns:graph="&ns_graphs;"
	 xmlns="http://www.w3.org/2000/svg" xmlns:xlink="http://www.w3.org/1999/xlink" x="0px" y="0px" viewBox="0 0 41.3 41.1"
	 style="enable-background:new 0 0 41.3 41.1;" xml:space="preserve">
<style type="text/css">
	.st0{fill:url(#SVGID_1_);stroke:#AB9166;stroke-width:0.75;stroke-miterlimit:10;}
	.st1{display:none;fill:url(#SVGID_2_);stroke:#9897A3;stroke-width:0.75;stroke-miterlimit:10;}
</style>
<metadata>
	<sfw  xmlns="&ns_sfw;">
		<slices></slices>
		<sliceSourceBounds  bottomLeftOrigin="true" height="32.9" width="32.9" x="4.1" y="3.9"></sliceSourceBounds>
	</sfw>
</metadata>
<g id="Слой_6">
	
		<linearGradient id="SVGID_1_" gradientUnits="userSpaceOnUse" x1="6.435" y1="-1332.9" x2="34.865" y2="-1332.9" gradientTransform="matrix(1 0 0 -1 0 -1312)">
		<stop  offset="0" style="stop-color:#1A1A1A"/>
		<stop  offset="1" style="stop-color:#666666"/>
	</linearGradient>
	<rect x="6.4" y="6.7" class="st0" width="28.4" height="28.4"/>
</g>
<g id="Слой_4">
</g>
<g id="Слой_2">
</g>
<linearGradient id="SVGID_2_" gradientUnits="userSpaceOnUse" x1="13.0056" y1="-1336.8" x2="28.1076" y2="-1336.8" gradientTransform="matrix(1 0 0 -1 0 -1312)">
	<stop  offset="0" style="stop-color:#666666"/>
	<stop  offset="1" style="stop-color:#1A1A1A"/>
</linearGradient>
<polygon class="st1" points="22.7,15.3 19.5,13.6 18,15.5 17.9,19 15.7,24.4 16.5,26.8 19,28.5 19.3,29.7 13.8,30.9 13.1,35.5 
	17.2,36 22.9,36 24.5,34.6 28.1,32.7 27.2,24.5 25,21 25.6,19.3 27.8,17.2 27.3,15.5 26.9,13.6 "/>
<g id="Слой_3">
</g>
<g id="Слой_9">
	<path d="M30.8,7.3c1.8,0,3.2,1.4,3.2,3.2V31c0,1.8-1.5,3.2-3.2,3.2H10.3c-1.8,0-3.2-1.5-3.2-3.2V10.5c0-1.8,1.5-3.2,3.2-3.2H30.8
		 M30.8,4.3H10.3c-3.4,0-6.2,2.8-6.2,6.2V31c0,3.4,2.8,6.2,6.2,6.2h20.5c3.4,0,6.2-2.8,6.2-6.2V10.5C37,7,34.3,4.3,30.8,4.3
		L30.8,4.3z"/>
</g>
</svg>
