<?xml version="1.0" encoding="utf-8"?>
<!-- Generator: Adobe Illustrator 23.0.0, SVG Export Plug-In . SVG Version: 6.00 Build 0)  -->
<!DOCTYPE svg PUBLIC "-//W3C//DTD SVG 1.1//EN" "http://www.w3.org/Graphics/SVG/1.1/DTD/svg11.dtd" [
	<!ENTITY ns_extend "http://ns.adobe.com/Extensibility/1.0/">
	<!ENTITY ns_ai "http://ns.adobe.com/AdobeIllustrator/10.0/">
	<!ENTITY ns_graphs "http://ns.adobe.com/Graphs/1.0/">
	<!ENTITY ns_vars "http://ns.adobe.com/Variables/1.0/">
	<!ENTITY ns_imrep "http://ns.adobe.com/ImageReplacement/1.0/">
	<!ENTITY ns_sfw "http://ns.adobe.com/SaveForWeb/1.0/">
	<!ENTITY ns_custom "http://ns.adobe.com/GenericCustomNamespace/1.0/">
	<!ENTITY ns_adobe_xpath "http://ns.adobe.com/XPath/1.0/">
]>
<svg version="1.1" id="Слой_1" xmlns:x="&ns_extend;" xmlns:i="&ns_ai;" xmlns:graph="&ns_graphs;"
	 xmlns="http://www.w3.org/2000/svg" xmlns:xlink="http://www.w3.org/1999/xlink" x="0px" y="0px" viewBox="0 0 41.3 41.1"
	 style="enable-background:new 0 0 41.3 41.1;" xml:space="preserve">
<style type="text/css">
	.st0{fill:url(#SVGID_1_);stroke:#AB9166;stroke-width:0.75;stroke-miterlimit:10;}
	.st1{fill:url(#SVGID_2_);stroke:#F4F4F4;stroke-miterlimit:10;}
	.st2{fill:url(#SVGID_3_);stroke:#DDDDDD;stroke-width:0.75;stroke-miterlimit:10;}
	.st3{fill:url(#SVGID_4_);stroke:#E2E2E2;stroke-width:0.75;stroke-miterlimit:10;}
</style>
<metadata>
	<sfw  xmlns="&ns_sfw;">
		<slices></slices>
		<sliceSourceBounds  bottomLeftOrigin="true" height="32.9" width="32.9" x="4.1" y="3.9"></sliceSourceBounds>
	</sfw>
</metadata>
<g id="Слой_6">
	
		<linearGradient id="SVGID_1_" gradientUnits="userSpaceOnUse" x1="6.21" y1="23.275" x2="34.64" y2="23.275" gradientTransform="matrix(1 0 0 -1 0 44)">
		<stop  offset="0" style="stop-color:#1A1A1A"/>
		<stop  offset="1" style="stop-color:#666666"/>
	</linearGradient>
	<path class="st0" d="M9.6,6.5h24.2c0.5,0,0.8,0.4,0.8,0.8V32c0,1.6-1.3,3-3,3H8.8c-1.4,0-2.6-1.1-2.6-2.6V9.9
		C6.2,8,7.7,6.5,9.6,6.5z"/>
</g>
<g id="Слой_7_1_">
	<g id="Слой_7_2_">
		
			<linearGradient id="SVGID_2_" gradientUnits="userSpaceOnUse" x1="8.9957" y1="25.6574" x2="35.456" y2="25.6574" gradientTransform="matrix(1 0 0 -1 0 44)">
			<stop  offset="0" style="stop-color:#666666"/>
			<stop  offset="1" style="stop-color:#1A1A1A"/>
		</linearGradient>
		<path class="st1" d="M20.7,29.7c-5.8,3.9-16.5-4.9-9.2-11.2c0.9-1.1,2.6-12.2,6-12.4c2.8-0.2,16.7,0.8,16.7,0.8
			c2.5,3,1.7,19.5-3.2,17.6C27.1,28.2,20.7,29.7,20.7,29.7z"/>
	</g>
	
		<linearGradient id="SVGID_3_" gradientUnits="userSpaceOnUse" x1="14.6037" y1="28.7672" x2="35.526" y2="28.7672" gradientTransform="matrix(1 0 0 -1 0 44)">
		<stop  offset="0" style="stop-color:#666666"/>
		<stop  offset="1" style="stop-color:#1A1A1A"/>
	</linearGradient>
	<path class="st2" d="M26.5,21.7c-4.4,5.2-16.8,3.6-9.9-10.2c0.9-1.1,2.5-5.1,5.8-5.4c2.8-0.2,8.6,1.1,8.6,1.1
		c1.4,1.6,5,8.3,4.3,11.2C34.1,22,26.5,21.7,26.5,21.7z"/>
	
		<linearGradient id="SVGID_4_" gradientUnits="userSpaceOnUse" x1="17.403" y1="31.6978" x2="35.6276" y2="31.6978" gradientTransform="matrix(1 0 0 -1 0 44)">
		<stop  offset="0" style="stop-color:#666666"/>
		<stop  offset="1" style="stop-color:#1A1A1A"/>
	</linearGradient>
	<path class="st3" d="M27.4,18.4c-2,1.7-15.1-0.9-7.8-7.2c0.9-1.1,2.5-5.1,5.8-5.4c2.8-0.2,8.6,1.1,8.6,1.1c1.4,1.6,2,6.6,1.3,9.5
		C31.6,20.1,27.4,18.4,27.4,18.4z"/>
</g>
<g id="Слой_9">
	<path d="M30.8,7.3c1.8,0,3.2,1.4,3.2,3.2V31c0,1.8-1.5,3.2-3.2,3.2H10.3c-1.8,0-3.2-1.5-3.2-3.2V10.5c0-1.8,1.5-3.2,3.2-3.2
		L30.8,7.3 M30.8,4.3H10.3c-3.4,0-6.2,2.8-6.2,6.2V31c0,3.4,2.8,6.2,6.2,6.2h20.5c3.4,0,6.2-2.8,6.2-6.2V10.5
		C37,7,34.3,4.3,30.8,4.3L30.8,4.3z"/>
</g>
</svg>
